<svg xmlns="http://www.w3.org/2000/svg" width="1240" height="880" viewBox="0 0 1240 880"><rect width="1240" height="880" fill="#FFFFFF"></rect><text x="60" y="66" font-family="&#39;Plus Jakarta Sans&#39;,&#39;Montserrat&#39;,Arial,Helvetica,sans-serif" font-weight="800" font-size="34" letter-spacing="0" fill="#0B6B3A" text-anchor="start">AAA — &#34;Triple-A&#34; Logo Concept</text><text x="60" y="96" font-family="&#39;Plus Jakarta Sans&#39;,&#39;Montserrat&#39;,Arial,Helvetica,sans-serif" font-weight="500" font-size="16" letter-spacing="0" fill="#666" text-anchor="start">Adejoke Aderemi-Adewole · Ajoke4House · three ascending A-peaks = progress + the highest rating</text><text x="60" y="150" font-family="&#39;Plus Jakarta Sans&#39;,&#39;Montserrat&#39;,Arial,Helvetica,sans-serif" font-weight="700" font-size="14" letter-spacing="2" fill="#999" text-anchor="start">PRIMARY MARK</text><rect x="60" y="166" width="300" height="250" rx="18" fill="#F6F8F6"></rect><g transform="translate(96,196) scale(1.45)"><path d="M 11.00 112.00 L 33.00 72.00 L 55.00 112.00" fill="none" stroke="#0B6B3A" stroke-width="15.0" stroke-linecap="round" stroke-linejoin="round"></path><line x1="18.48" y1="98.40" x2="47.52" y2="98.40" stroke="#0B6B3A" stroke-width="15.0" stroke-linecap="round"></line><path d="M 53.00 112.00 L 75.00 48.00 L 97.00 112.00" fill="none" stroke="#0B6B3A" stroke-width="15.0" stroke-linecap="round" stroke-linejoin="round"></path><line x1="60.48" y1="90.24" x2="89.52" y2="90.24" stroke="#0B6B3A" stroke-width="15.0" stroke-linecap="round"></line><path d="M 95.00 112.00 L 117.00 24.00 L 139.00 112.00" fill="none" stroke="#F2B807" stroke-width="15.0" stroke-linecap="round" stroke-linejoin="round"></path><line x1="102.48" y1="82.08" x2="131.52" y2="82.08" stroke="#F2B807" stroke-width="15.0" stroke-linecap="round"></line></g><text x="392" y="150" font-family="&#39;Plus Jakarta Sans&#39;,&#39;Montserrat&#39;,Arial,Helvetica,sans-serif" font-weight="700" font-size="14" letter-spacing="2" fill="#999" text-anchor="start">WITH RISING-MOTION LINE</text><rect x="392" y="166" width="300" height="250" rx="18" fill="#F6F8F6"></rect><g transform="translate(428,196) scale(1.45)"><polyline points="33.0,72.0 75.0,48.0 117.0,24.0" fill="none" stroke="#F2B807" stroke-width="4" stroke-linecap="round" stroke-linejoin="round" stroke-dasharray="1 9" opacity="0.55"></polyline><path d="M 11.00 112.00 L 33.00 72.00 L 55.00 112.00" fill="none" stroke="#0B6B3A" stroke-width="15.0" stroke-linecap="round" stroke-linejoin="round"></path><line x1="18.48" y1="98.40" x2="47.52" y2="98.40" stroke="#0B6B3A" stroke-width="15.0" stroke-linecap="round"></line><path d="M 53.00 112.00 L 75.00 48.00 L 97.00 112.00" fill="none" stroke="#0B6B3A" stroke-width="15.0" stroke-linecap="round" stroke-linejoin="round"></path><line x1="60.48" y1="90.24" x2="89.52" y2="90.24" stroke="#0B6B3A" stroke-width="15.0" stroke-linecap="round"></line><path d="M 95.00 112.00 L 117.00 24.00 L 139.00 112.00" fill="none" stroke="#F2B807" stroke-width="15.0" stroke-linecap="round" stroke-linejoin="round"></path><line x1="102.48" y1="82.08" x2="131.52" y2="82.08" stroke="#F2B807" stroke-width="15.0" stroke-linecap="round"></line></g><text x="724" y="150" font-family="&#39;Plus Jakarta Sans&#39;,&#39;Montserrat&#39;,Arial,Helvetica,sans-serif" font-weight="700" font-size="14" letter-spacing="2" fill="#999" text-anchor="start">1-COLOUR / REVERSED</text><rect x="724" y="166" width="220" height="250" rx="18" fill="#F6F8F6"></rect><g transform="translate(742,214) scale(1.05)"><path d="M 11.00 112.00 L 33.00 72.00 L 55.00 112.00" fill="none" stroke="#111111" stroke-width="15.0" stroke-linecap="round" stroke-linejoin="round"></path><line x1="18.48" y1="98.40" x2="47.52" y2="98.40" stroke="#111111" stroke-width="15.0" stroke-linecap="round"></line><path d="M 53.00 112.00 L 75.00 48.00 L 97.00 112.00" fill="none" stroke="#111111" stroke-width="15.0" stroke-linecap="round" stroke-linejoin="round"></path><line x1="60.48" y1="90.24" x2="89.52" y2="90.24" stroke="#111111" stroke-width="15.0" stroke-linecap="round"></line><path d="M 95.00 112.00 L 117.00 24.00 L 139.00 112.00" fill="none" stroke="#111111" stroke-width="15.0" stroke-linecap="round" stroke-linejoin="round"></path><line x1="102.48" y1="82.08" x2="131.52" y2="82.08" stroke="#111111" stroke-width="15.0" stroke-linecap="round"></line></g><rect x="956" y="166" width="224" height="250" rx="18" fill="#14210F"></rect><g transform="translate(974,214) scale(1.05)"><path d="M 11.00 112.00 L 33.00 72.00 L 55.00 112.00" fill="none" stroke="#FFFFFF" stroke-width="15.0" stroke-linecap="round" stroke-linejoin="round"></path><line x1="18.48" y1="98.40" x2="47.52" y2="98.40" stroke="#FFFFFF" stroke-width="15.0" stroke-linecap="round"></line><path d="M 53.00 112.00 L 75.00 48.00 L 97.00 112.00" fill="none" stroke="#FFFFFF" stroke-width="15.0" stroke-linecap="round" stroke-linejoin="round"></path><line x1="60.48" y1="90.24" x2="89.52" y2="90.24" stroke="#FFFFFF" stroke-width="15.0" stroke-linecap="round"></line><path d="M 95.00 112.00 L 117.00 24.00 L 139.00 112.00" fill="none" stroke="#F2B807" stroke-width="15.0" stroke-linecap="round" stroke-linejoin="round"></path><line x1="102.48" y1="82.08" x2="131.52" y2="82.08" stroke="#F2B807" stroke-width="15.0" stroke-linecap="round"></line></g><text x="60" y="470" font-family="&#39;Plus Jakarta Sans&#39;,&#39;Montserrat&#39;,Arial,Helvetica,sans-serif" font-weight="700" font-size="14" letter-spacing="2" fill="#999" text-anchor="start">APP ICON / WHATSAPP DP — THREE VARIANT COLOURWAYS</text><g transform="translate(60,488) scale(1.3)"><rect x="3" y="3" width="144" height="119" rx="34" fill="#0B6B3A"></rect><path d="M 11.00 112.00 L 33.00 72.00 L 55.00 112.00" fill="none" stroke="#FFFFFF" stroke-width="15.0" stroke-linecap="round" stroke-linejoin="round"></path><line x1="18.48" y1="98.40" x2="47.52" y2="98.40" stroke="#FFFFFF" stroke-width="15.0" stroke-linecap="round"></line><path d="M 53.00 112.00 L 75.00 48.00 L 97.00 112.00" fill="none" stroke="#FFFFFF" stroke-width="15.0" stroke-linecap="round" stroke-linejoin="round"></path><line x1="60.48" y1="90.24" x2="89.52" y2="90.24" stroke="#FFFFFF" stroke-width="15.0" stroke-linecap="round"></line><path d="M 95.00 112.00 L 117.00 24.00 L 139.00 112.00" fill="none" stroke="#F2B807" stroke-width="15.0" stroke-linecap="round" stroke-linejoin="round"></path><line x1="102.48" y1="82.08" x2="131.52" y2="82.08" stroke="#F2B807" stroke-width="15.0" stroke-linecap="round"></line></g><text x="157" y="686" font-family="&#39;Plus Jakarta Sans&#39;,&#39;Montserrat&#39;,Arial,Helvetica,sans-serif" font-weight="700" font-size="14" letter-spacing="0" fill="#444" text-anchor="middle">Movement</text><g transform="translate(300,488) scale(1.3)"><rect x="3" y="3" width="144" height="119" rx="34" fill="#FCC200"></rect><path d="M 11.00 112.00 L 33.00 72.00 L 55.00 112.00" fill="none" stroke="#111111" stroke-width="15.0" stroke-linecap="round" stroke-linejoin="round"></path><line x1="18.48" y1="98.40" x2="47.52" y2="98.40" stroke="#111111" stroke-width="15.0" stroke-linecap="round"></line><path d="M 53.00 112.00 L 75.00 48.00 L 97.00 112.00" fill="none" stroke="#111111" stroke-width="15.0" stroke-linecap="round" stroke-linejoin="round"></path><line x1="60.48" y1="90.24" x2="89.52" y2="90.24" stroke="#111111" stroke-width="15.0" stroke-linecap="round"></line><path d="M 95.00 112.00 L 117.00 24.00 L 139.00 112.00" fill="none" stroke="#D81E5B" stroke-width="15.0" stroke-linecap="round" stroke-linejoin="round"></path><line x1="102.48" y1="82.08" x2="131.52" y2="82.08" stroke="#D81E5B" stroke-width="15.0" stroke-linecap="round"></line></g><text x="397" y="686" font-family="&#39;Plus Jakarta Sans&#39;,&#39;Montserrat&#39;,Arial,Helvetica,sans-serif" font-weight="700" font-size="14" letter-spacing="0" fill="#444" text-anchor="middle">Lagos Vernacular</text><g transform="translate(540,488) scale(1.3)"><rect x="3" y="3" width="144" height="119" rx="34" fill="#0E2A47"></rect><path d="M 11.00 112.00 L 33.00 72.00 L 55.00 112.00" fill="none" stroke="#FFFFFF" stroke-width="15.0" stroke-linecap="round" stroke-linejoin="round"></path><line x1="18.48" y1="98.40" x2="47.52" y2="98.40" stroke="#FFFFFF" stroke-width="15.0" stroke-linecap="round"></line><path d="M 53.00 112.00 L 75.00 48.00 L 97.00 112.00" fill="none" stroke="#FFFFFF" stroke-width="15.0" stroke-linecap="round" stroke-linejoin="round"></path><line x1="60.48" y1="90.24" x2="89.52" y2="90.24" stroke="#FFFFFF" stroke-width="15.0" stroke-linecap="round"></line><path d="M 95.00 112.00 L 117.00 24.00 L 139.00 112.00" fill="none" stroke="#2FBF93" stroke-width="15.0" stroke-linecap="round" stroke-linejoin="round"></path><line x1="102.48" y1="82.08" x2="131.52" y2="82.08" stroke="#2FBF93" stroke-width="15.0" stroke-linecap="round"></line></g><text x="637" y="686" font-family="&#39;Plus Jakarta Sans&#39;,&#39;Montserrat&#39;,Arial,Helvetica,sans-serif" font-weight="700" font-size="14" letter-spacing="0" fill="#444" text-anchor="middle">Accountable</text><text x="800" y="470" font-family="&#39;Plus Jakarta Sans&#39;,&#39;Montserrat&#39;,Arial,Helvetica,sans-serif" font-weight="700" font-size="14" letter-spacing="2" fill="#999" text-anchor="start">FAVICON SIZES</text><g transform="translate(800,488) scale(0.43)"><rect x="3" y="3" width="144" height="119" rx="34" fill="#0B6B3A"></rect><path d="M 11.00 112.00 L 33.00 72.00 L 55.00 112.00" fill="none" stroke="#FFFFFF" stroke-width="15.0" stroke-linecap="round" stroke-linejoin="round"></path><line x1="18.48" y1="98.40" x2="47.52" y2="98.40" stroke="#FFFFFF" stroke-width="15.0" stroke-linecap="round"></line><path d="M 53.00 112.00 L 75.00 48.00 L 97.00 112.00" fill="none" stroke="#FFFFFF" stroke-width="15.0" stroke-linecap="round" stroke-linejoin="round"></path><line x1="60.48" y1="90.24" x2="89.52" y2="90.24" stroke="#FFFFFF" stroke-width="15.0" stroke-linecap="round"></line><path d="M 95.00 112.00 L 117.00 24.00 L 139.00 112.00" fill="none" stroke="#F2B807" stroke-width="15.0" stroke-linecap="round" stroke-linejoin="round"></path><line x1="102.48" y1="82.08" x2="131.52" y2="82.08" stroke="#F2B807" stroke-width="15.0" stroke-linecap="round"></line></g><text x="832.25" y="560" font-family="&#39;Plus Jakarta Sans&#39;,&#39;Montserrat&#39;,Arial,Helvetica,sans-serif" font-weight="600" font-size="12" letter-spacing="0" fill="#888" text-anchor="middle">64px</text><g transform="translate(895,488) scale(0.28)"><rect x="3" y="3" width="144" height="119" rx="34" fill="#0B6B3A"></rect><path d="M 11.00 112.00 L 33.00 72.00 L 55.00 112.00" fill="none" stroke="#FFFFFF" stroke-width="15.0" stroke-linecap="round" stroke-linejoin="round"></path><line x1="18.48" y1="98.40" x2="47.52" y2="98.40" stroke="#FFFFFF" stroke-width="15.0" stroke-linecap="round"></line><path d="M 53.00 112.00 L 75.00 48.00 L 97.00 112.00" fill="none" stroke="#FFFFFF" stroke-width="15.0" stroke-linecap="round" stroke-linejoin="round"></path><line x1="60.48" y1="90.24" x2="89.52" y2="90.24" stroke="#FFFFFF" stroke-width="15.0" stroke-linecap="round"></line><path d="M 95.00 112.00 L 117.00 24.00 L 139.00 112.00" fill="none" stroke="#F2B807" stroke-width="15.0" stroke-linecap="round" stroke-linejoin="round"></path><line x1="102.48" y1="82.08" x2="131.52" y2="82.08" stroke="#F2B807" stroke-width="15.0" stroke-linecap="round"></line></g><text x="916.0" y="560" font-family="&#39;Plus Jakarta Sans&#39;,&#39;Montserrat&#39;,Arial,Helvetica,sans-serif" font-weight="600" font-size="12" letter-spacing="0" fill="#888" text-anchor="middle">42px</text><g transform="translate(990,488) scale(0.17)"><rect x="3" y="3" width="144" height="119" rx="34" fill="#0B6B3A"></rect><path d="M 11.00 112.00 L 33.00 72.00 L 55.00 112.00" fill="none" stroke="#FFFFFF" stroke-width="15.0" stroke-linecap="round" stroke-linejoin="round"></path><line x1="18.48" y1="98.40" x2="47.52" y2="98.40" stroke="#FFFFFF" stroke-width="15.0" stroke-linecap="round"></line><path d="M 53.00 112.00 L 75.00 48.00 L 97.00 112.00" fill="none" stroke="#FFFFFF" stroke-width="15.0" stroke-linecap="round" stroke-linejoin="round"></path><line x1="60.48" y1="90.24" x2="89.52" y2="90.24" stroke="#FFFFFF" stroke-width="15.0" stroke-linecap="round"></line><path d="M 95.00 112.00 L 117.00 24.00 L 139.00 112.00" fill="none" stroke="#F2B807" stroke-width="15.0" stroke-linecap="round" stroke-linejoin="round"></path><line x1="102.48" y1="82.08" x2="131.52" y2="82.08" stroke="#F2B807" stroke-width="15.0" stroke-linecap="round"></line></g><text x="1002.75" y="560" font-family="&#39;Plus Jakarta Sans&#39;,&#39;Montserrat&#39;,Arial,Helvetica,sans-serif" font-weight="600" font-size="12" letter-spacing="0" fill="#888" text-anchor="middle">25px</text><text x="60" y="736" font-family="&#39;Plus Jakarta Sans&#39;,&#39;Montserrat&#39;,Arial,Helvetica,sans-serif" font-weight="700" font-size="14" letter-spacing="2" fill="#999" text-anchor="start">HORIZONTAL LOCKUP</text><rect x="60" y="752" width="760" height="104" rx="16" fill="#F6F8F6"></rect><g transform="translate(84,760) scale(0.74)"><g transform="translate(0,8) scale(0.78)"><rect x="3" y="3" width="144" height="119" rx="30" fill="#0B6B3A"></rect><path d="M 11.00 112.00 L 33.00 72.00 L 55.00 112.00" fill="none" stroke="#FFFFFF" stroke-width="15.0" stroke-linecap="round" stroke-linejoin="round"></path><line x1="18.48" y1="98.40" x2="47.52" y2="98.40" stroke="#FFFFFF" stroke-width="15.0" stroke-linecap="round"></line><path d="M 53.00 112.00 L 75.00 48.00 L 97.00 112.00" fill="none" stroke="#FFFFFF" stroke-width="15.0" stroke-linecap="round" stroke-linejoin="round"></path><line x1="60.48" y1="90.24" x2="89.52" y2="90.24" stroke="#FFFFFF" stroke-width="15.0" stroke-linecap="round"></line><path d="M 95.00 112.00 L 117.00 24.00 L 139.00 112.00" fill="none" stroke="#F2B807" stroke-width="15.0" stroke-linecap="round" stroke-linejoin="round"></path><line x1="102.48" y1="82.08" x2="131.52" y2="82.08" stroke="#F2B807" stroke-width="15.0" stroke-linecap="round"></line></g><text x="132" y="58" font-family="&#39;Plus Jakarta Sans&#39;,&#39;Montserrat&#39;,Arial,Helvetica,sans-serif" font-weight="800" font-size="40" fill="#0B6B3A">Ajoke<tspan fill="#F2B807">4House</tspan></text><text x="134" y="84" font-family="&#39;Plus Jakarta Sans&#39;,&#39;Montserrat&#39;,Arial,Helvetica,sans-serif" font-weight="700" font-size="13.5" letter-spacing="3" fill="#5A5A5A">ACCESSIBLE · ACCOUNTABLE · IN ACTION</text></g></svg>